<svg width="86" height="82" viewBox="0 0 86 82" fill="none" xmlns="http://www.w3.org/2000/svg">
<ellipse cx="43" cy="41" rx="43" ry="41" fill="#EFF5FF"/>
<path d="M59.25 24.75C57.4794 26.4437 55.3737 27.7478 53.0685 28.5785C50.6375 29.0075 43.91 25.8875 40.595 29.0725C40.0425 29.625 39.36 30.1775 38.645 30.73C37.085 30.0475 34.68 29.0075 32.925 28C31.17 26.9925 26.75 24.75 26.75 24.75L17 36.125C17 36.125 19.405 39.375 20.9 41.52C21.875 42.95 23.0775 45.1275 23.8575 46.59L22.7525 47.89C22.4898 48.4161 22.3956 49.0104 22.4828 49.592C22.5701 50.1736 22.8345 50.7141 23.24 51.14C23.7094 51.4939 24.2815 51.6848 24.8693 51.6836C25.4572 51.6824 26.0285 51.4893 26.4965 51.1335C26.3227 51.3369 26.1912 51.573 26.1097 51.8278C26.0281 52.0826 25.9981 52.3511 26.0214 52.6176C26.0447 52.8841 26.1208 53.1433 26.2453 53.3801C26.3699 53.6169 26.5403 53.8265 26.7467 53.9967C27.2437 54.2846 27.8081 54.4357 28.3824 54.4346C28.9567 54.4334 29.5205 54.2801 30.0163 53.9902C29.6449 54.4531 29.4417 55.0283 29.44 55.6217C29.4382 56.215 29.6379 56.7915 30.0065 57.2565C30.4855 57.4229 30.9965 57.476 31.4995 57.4117C32.0025 57.3474 32.4837 57.1675 32.9055 56.886C32.6944 57.3834 32.6394 57.9333 32.748 58.4626C32.8565 58.992 33.1234 59.4758 33.5133 59.85C34.0633 60.0921 34.6656 60.1916 35.2643 60.1394C35.863 60.0871 36.4389 59.8848 36.9388 59.551L38.6157 58.0332C40.1497 59.5607 42.2655 60.5065 44.6022 60.5065L44.8005 60.5033C45.5707 60.4379 46.3085 60.164 46.9349 59.7111C47.5613 59.2583 48.0525 58.6434 48.356 57.9325C48.8305 58.1145 49.37 58.238 49.942 58.238C50.709 58.238 51.4207 58.017 52.022 57.6368C53.9232 56.379 53.4683 55.404 53.4683 55.404C54.1443 55.695 54.8953 55.764 55.613 55.6011C56.3308 55.4381 56.9784 55.0516 57.4625 54.4972C57.9656 53.9826 58.2828 53.3149 58.3641 52.5998C58.4453 51.8847 58.2859 51.1629 57.911 50.5485C57.9318 50.5601 57.9554 50.5657 57.9793 50.5647C59.3475 50.5647 60.537 49.8108 61.1577 48.6993C61.4644 47.9095 61.5683 47.0555 61.4598 46.2152C61.3514 45.375 61.0341 44.5753 60.537 43.8892L60.5467 43.9055C63.2118 43.3855 63.1143 42.053 64.4142 40.103C65.6436 38.5102 67.1755 37.176 68.922 36.177L59.25 24.75ZM59.0875 47.695C57.6575 49.125 56.5525 48.5075 54.115 46.655C51.6775 44.8025 46.835 41.325 46.835 41.325C47.0333 42.3163 47.4915 43.1775 48.1383 43.8632C49.175 45.03 52.2625 47.695 53.725 49.06C54.635 49.905 56.975 51.595 55.61 52.895C54.245 54.195 53.1725 52.895 50.93 51.075C48.6875 49.255 43.6825 44.77 43.6825 44.77C43.6556 45.1999 43.7198 45.6306 43.871 46.0338C44.0223 46.4371 44.257 46.8039 44.56 47.11C45.1125 47.76 48.2 50.75 49.5 52.115C50.8 53.48 51.9375 54.2925 50.8325 55.365C49.7275 56.4375 47.485 54.7475 46.25 53.48C44.3325 51.6275 40.53 48.1825 40.53 48.1825L40.5267 48.3547C40.5267 49.2777 40.8452 50.1227 41.3815 50.7922C42.3175 52.0207 44.1375 53.6132 45.2425 54.8482C46.3475 56.0832 46.9975 57.1232 45.2425 58.0982C43.4875 59.0732 40.8875 56.6683 39.75 55.4983V55.4917C39.7535 55.1702 39.6377 54.8587 39.425 54.6175C39.0355 54.2586 38.5559 54.0122 38.0373 53.9046C37.5187 53.797 36.9806 53.8322 36.4805 54.0065C36.6858 53.8221 36.8502 53.5968 36.9634 53.3452C37.0766 53.0935 37.1361 52.821 37.1379 52.5451C37.1397 52.2691 37.0839 51.9958 36.9741 51.7427C36.8643 51.4896 36.7028 51.2621 36.5 51.075C36.0734 50.7518 35.5527 50.5771 35.0175 50.5777C34.4822 50.5783 33.9619 50.7541 33.536 51.0782C33.7514 50.8725 33.9176 50.621 34.0224 50.3422C34.1272 50.0634 34.1678 49.7646 34.1413 49.468C34.1147 49.1714 34.0217 48.8845 33.8691 48.6288C33.7165 48.373 33.5082 48.155 33.2597 47.9907C32.6779 47.6252 31.9952 47.4534 31.3097 47.5001C30.6242 47.5468 29.9711 47.8096 29.4443 48.2507C29.7964 47.824 29.97 47.2777 29.9288 46.726C29.8876 46.1742 29.6348 45.6598 29.2232 45.29C28.7107 44.8158 28.0591 44.5193 27.3648 44.4443C26.6706 44.3694 25.9707 44.5201 25.3688 44.874L23.2075 41.2243C21.7125 38.8518 19.9575 36.3818 19.9575 36.3818L27.3675 27.3793C27.3675 27.3793 30 29.0043 32.1775 30.2393C33.25 30.8568 35.1025 31.6693 36.5 32.3193C34.29 33.9768 32.4375 35.5693 32.99 36.6743C33.9739 37.3828 35.1508 37.7737 36.3631 37.7946C37.5753 37.8155 38.765 37.4654 39.7728 36.7913C41.0649 35.9299 42.5846 35.4739 44.1375 35.4815C45.2653 35.4815 46.3378 35.7155 47.3095 36.1413C49.11 37.3568 52.425 40.3467 55.4475 42.2317C59.25 44.9942 59.9975 46.7817 59.0875 47.6917V47.695Z" fill="#335892"/>
</svg>
