<svg width="86" height="82" viewBox="0 0 86 82" fill="none" xmlns="http://www.w3.org/2000/svg">
<ellipse cx="43" cy="41" rx="43" ry="41" fill="#EFF5FF"/>
<path d="M41.1513 30.217C41.9746 28.7372 42.3863 28.0005 43.0016 28.0005C43.6169 28.0005 44.0286 28.7372 44.8519 30.217L45.0642 30.5983C45.2982 31.0187 45.4152 31.2267 45.5972 31.3653C45.7814 31.504 46.0089 31.556 46.4639 31.6578L46.8756 31.7532C48.4746 32.115 49.2741 32.2948 49.4647 32.9058C49.6554 33.5168 49.1094 34.156 48.0196 35.43L47.7379 35.7593C47.4281 36.1212 47.2721 36.301 47.2028 36.5263C47.1334 36.7517 47.1573 36.9922 47.2028 37.4753L47.2461 37.9152C47.4107 39.616 47.4931 40.4675 46.9969 40.8445C46.4986 41.2215 45.7489 40.877 44.2517 40.188L43.8661 40.0103C43.4393 39.8153 43.2269 39.7178 43.0016 39.7178C42.7763 39.7178 42.5639 39.8153 42.1371 40.0103L41.7514 40.188C40.2543 40.8792 39.5046 41.2215 39.0063 40.8445C38.5079 40.4675 38.5924 39.616 38.7571 37.9152L38.8004 37.4753C38.8459 36.9922 38.8698 36.7517 38.8004 36.5263C38.7311 36.301 38.5751 36.1212 38.2653 35.7593L37.9836 35.43C36.8938 34.156 36.3478 33.519 36.5384 32.9058C36.7291 32.2948 37.5286 32.115 39.1276 31.7532L39.5393 31.6578C39.9943 31.556 40.2218 31.5062 40.4059 31.3653C40.5879 31.2267 40.7049 31.0187 40.9389 30.5983L41.1513 30.217Z" stroke="#335892" stroke-width="3"/>
<path d="M58.1683 34.5007C58.1683 36.4924 57.776 38.4646 57.0138 40.3047C56.2516 42.1448 55.1344 43.8167 53.7261 45.2251C52.3177 46.6335 50.6458 47.7506 48.8057 48.5128C46.9656 49.275 44.9933 49.6673 43.0016 49.6673C41.0099 49.6673 39.0377 49.275 37.1976 48.5128C35.3575 47.7506 33.6855 46.6335 32.2772 45.2251C30.8688 43.8167 29.7517 42.1448 28.9895 40.3047C28.2273 38.4646 27.835 36.4924 27.835 34.5007C27.835 30.4782 29.4329 26.6205 32.2772 23.7762C35.1215 20.9319 38.9792 19.334 43.0016 19.334C47.0241 19.334 50.8818 20.9319 53.7261 23.7762C56.5704 26.6205 58.1683 30.4782 58.1683 34.5007Z" stroke="#335892" stroke-width="3"/>
<path d="M28.8227 41.0005L23.484 46.5277C22.314 47.7388 21.729 48.3455 21.5254 48.859C21.0639 50.0268 21.4604 51.3247 22.4635 51.94C22.9055 52.2087 23.7007 52.2932 25.291 52.4622C26.1902 52.5575 26.6387 52.603 27.0135 52.7482C27.4328 52.9103 27.8119 53.1617 28.1243 53.4849C28.4367 53.8082 28.675 54.1956 28.8227 54.6202C28.9614 55.0102 29.0069 55.4738 29.1 56.4055C29.2604 58.0522 29.3427 58.8755 29.6027 59.3305C30.1964 60.3705 31.4509 60.7778 32.5775 60.3012C33.0759 60.0932 33.6609 59.4887 34.8309 58.2753L43.0014 49.8145L51.1719 58.2753C52.3419 59.4887 52.9269 60.0932 53.4252 60.3012C54.5519 60.7778 55.8064 60.3705 56.4 59.3305C56.66 58.8755 56.7402 58.0522 56.9027 56.4055C56.9959 55.4738 57.0414 55.0102 57.18 54.6202C57.492 53.7492 58.1464 53.071 58.9892 52.7482C59.364 52.603 59.8125 52.5575 60.7117 52.4622C62.302 52.2932 63.0972 52.2087 63.5392 51.94C64.5424 51.3247 64.9389 50.0268 64.4774 48.859C64.2737 48.3455 63.6887 47.7388 62.5187 46.5277L57.18 41.0005" stroke="#335892" stroke-width="3"/>
</svg>
