<svg width="86" height="82" viewBox="0 0 86 82" fill="none" xmlns="http://www.w3.org/2000/svg">
<ellipse cx="43" cy="41" rx="43" ry="41" fill="#EFF5FF"/>
<path d="M46.4246 44.4268C48.6188 42.2323 51.5949 40.9993 54.6982 40.999C57.8015 40.9988 60.7778 42.2313 62.9723 44.4255C65.1668 46.6197 66.3998 49.5958 66.4001 52.6991C66.4003 55.8024 65.1678 58.7787 62.9736 60.9732C62.8537 61.0974 62.7102 61.1964 62.5516 61.2645C62.393 61.3327 62.2224 61.3685 62.0498 61.37C61.8772 61.3715 61.706 61.3386 61.5462 61.2733C61.3865 61.2079 61.2413 61.1114 61.1193 60.9893C60.9972 60.8673 60.9007 60.7221 60.8353 60.5623C60.77 60.4026 60.7371 60.2314 60.7386 60.0588C60.7401 59.8862 60.7759 59.7156 60.8441 59.557C60.9122 59.3984 61.0112 59.2549 61.1354 59.135C62.408 57.8623 63.2746 56.2408 63.6256 54.4756C63.9767 52.7104 63.7964 50.8808 63.1076 49.218C62.4188 47.5553 61.2524 46.1341 59.756 45.1342C58.2595 44.1343 56.5002 43.6007 54.7004 43.6007C52.9006 43.6007 51.1413 44.1343 49.6448 45.1342C48.1483 46.1341 46.982 47.5553 46.2932 49.218C45.6044 50.8808 45.4241 52.7104 45.7752 54.4756C46.1262 56.2408 46.9928 57.8623 48.2654 59.135C48.3861 59.2559 48.4818 59.3993 48.5471 59.5572C48.6123 59.715 48.6458 59.8842 48.6457 60.055C48.6456 60.2258 48.6118 60.395 48.5464 60.5527C48.4809 60.7105 48.385 60.8538 48.2641 60.9745C48.1432 61.0952 47.9998 61.1909 47.8419 61.2562C47.6841 61.3214 47.5149 61.3549 47.3441 61.3548C47.1733 61.3547 47.0041 61.3209 46.8464 61.2555C46.6886 61.19 46.5453 61.0941 46.4246 60.9732C45.3381 59.8867 44.4763 58.5969 43.8883 57.1774C43.3003 55.7579 42.9977 54.2365 42.9977 52.7C42.9977 51.1635 43.3003 49.6421 43.8883 48.2226C44.4763 46.8031 45.3381 45.5132 46.4246 44.4268ZM50.101 48.1032C51.3201 46.8841 52.9737 46.1991 54.6978 46.1991C56.4219 46.1991 58.0754 46.8841 59.2946 48.1032C60.5137 49.3223 61.1986 50.9759 61.1986 52.7C61.1986 54.4241 60.5137 56.0777 59.2946 57.2968C59.0505 57.5406 58.7195 57.6774 58.3746 57.6771C58.0296 57.6769 57.6989 57.5396 57.4551 57.2955C57.2113 57.0514 57.0745 56.7205 57.0748 56.3755C57.075 56.0305 57.2123 55.6998 57.4564 55.456C58.0016 54.9105 58.3728 54.2156 58.523 53.4591C58.6733 52.7026 58.5959 51.9186 58.3007 51.2061C58.0054 50.4936 57.5056 49.8847 56.8643 49.4563C56.223 49.0278 55.469 48.7992 54.6978 48.7992C53.9266 48.7992 53.1726 49.0278 52.5313 49.4563C51.89 49.8847 51.3902 50.4936 51.0949 51.2061C50.7996 51.9186 50.7223 52.7026 50.8725 53.4591C51.0228 54.2156 51.394 54.9105 51.9392 55.456C52.1833 55.6998 52.3206 56.0305 52.3208 56.3755C52.3211 56.7205 52.1843 57.0514 51.9405 57.2955C51.6967 57.5396 51.366 57.6769 51.021 57.6771C50.676 57.6774 50.3451 57.5406 50.101 57.2968C49.4972 56.6932 49.0183 55.9766 48.6915 55.1878C48.3648 54.3991 48.1966 53.5537 48.1966 52.7C48.1966 51.8463 48.3648 51.0009 48.6915 50.2122C49.0183 49.4234 49.4972 48.7068 50.101 48.1032ZM43.0004 41C43.939 41 44.8204 41.2496 45.5796 41.6864C43.5637 43.3521 42.0442 45.5395 41.1868 48.0099C40.3293 50.4803 40.1671 53.1388 40.7176 55.6952C39.0536 56.2568 37.0256 56.6 34.5504 56.6C20.9004 56.6 20.9004 46.2 20.9004 46.2C20.9004 44.8209 21.4482 43.4982 22.4234 42.523C23.3986 41.5479 24.7213 41 26.1004 41H43.0004ZM34.5504 21.5C36.7915 21.5 38.9408 22.3903 40.5254 23.9749C42.1101 25.5596 43.0004 27.7089 43.0004 29.95C43.0004 32.1911 42.1101 34.3404 40.5254 35.9251C38.9408 37.5097 36.7915 38.4 34.5504 38.4C32.3093 38.4 30.16 37.5097 28.5753 35.9251C26.9907 34.3404 26.1004 32.1911 26.1004 29.95C26.1004 27.7089 26.9907 25.5596 28.5753 23.9749C30.16 22.3903 32.3093 21.5 34.5504 21.5ZM54.7004 25.4C56.4243 25.4 58.0776 26.0848 59.2966 27.3038C60.5156 28.5228 61.2004 30.1761 61.2004 31.9C61.2004 33.6239 60.5156 35.2772 59.2966 36.4962C58.0776 37.7152 56.4243 38.4 54.7004 38.4C52.9765 38.4 51.3232 37.7152 50.1042 36.4962C48.8852 35.2772 48.2004 33.6239 48.2004 31.9C48.2004 30.1761 48.8852 28.5228 50.1042 27.3038C51.3232 26.0848 52.9765 25.4 54.7004 25.4Z" fill="#335892"/>
</svg>
