<svg width="21" height="21" viewBox="0 0 21 21" fill="none" xmlns="http://www.w3.org/2000/svg">
<path d="M1.5794 15.1082C1.92961 15.8888 0.963812 17.7974 1.03052 18.6105C1.19064 20.6791 3.86578 19.4724 5.18333 18.6105C7.68503 19.9766 12.942 19.9865 16.5395 17.1085C20.4421 13.9863 21.3428 6.13175 16.0892 2.61904C10.5553 -1.08118 5.47962 1.49695 3.28055 3.69231C-0.92222 7.88799 1.31793 14.5255 1.5794 15.1082Z" stroke="#335892" stroke-width="1.5"/>
<path d="M6.10982 12.7192C6.34154 13.4603 6.20251 13.0898 6.48058 13.8309C6.44998 14.9158 7.73939 14.0861 8.34998 13.6842C9.50934 14.3212 11.5283 14.6486 13.1955 13.3064C15.0041 11.8504 15.4214 8.18745 12.9868 6.54932C10.4222 4.82374 8.07 6.02604 7.05089 7.04983C5.1032 9.00646 6.02103 12.4352 6.10982 12.7192Z" stroke="#335892" stroke-width="1.5"/>
</svg>
