<svg width="24" height="24" viewBox="0 0 24 24" fill="none" xmlns="http://www.w3.org/2000/svg">
<path fill-rule="evenodd" clip-rule="evenodd" d="M23.405 16.8651C22.8609 15.7696 22.1441 14.7688 21.282 13.9011C20.9932 13.5756 20.6913 13.262 20.377 12.9611L20.339 12.9241C20.2222 12.8109 20.1069 12.6963 19.993 12.5801C21.1718 10.941 22.1803 9.18588 23.003 7.34211L23.036 7.26811L23.059 7.19011C23.168 6.82711 23.292 6.13711 22.852 5.51311C22.396 4.86911 21.667 4.75311 21.178 4.75311H18.931C18.4604 4.73136 17.9951 4.85918 17.6017 5.11823C17.2082 5.37728 16.9069 5.75426 16.741 6.19511C16.2575 7.34677 15.652 8.44335 14.935 9.46611V6.83311C14.935 6.49311 14.903 5.92311 14.538 5.44311C14.102 4.86711 13.471 4.75311 13.033 4.75311H9.467C9.00167 4.74241 8.55005 4.91107 8.20567 5.22419C7.86128 5.5373 7.65051 5.97087 7.617 6.43511L7.614 6.48011V6.52511C7.614 7.01011 7.806 7.36811 7.96 7.59311C8.029 7.69411 8.102 7.78611 8.149 7.84411L8.159 7.85711C8.209 7.91911 8.242 7.96011 8.275 8.00611C8.363 8.12411 8.488 8.30811 8.524 8.78211V10.2551C7.80827 9.05638 7.22134 7.78531 6.773 6.46311L6.765 6.44111L6.757 6.42011C6.635 6.10111 6.44 5.63711 6.049 5.28311C5.593 4.86811 5.053 4.75311 4.562 4.75311H2.282C1.785 4.75311 1.186 4.86911 0.739 5.34011C0.3 5.80411 0.25 6.36011 0.25 6.65411V6.78811L0.278 6.91811C0.908264 9.84924 2.20931 12.5944 4.079 14.9381C4.93332 16.2855 6.09321 17.4125 7.46459 18.2277C8.83596 19.0429 10.3802 19.5234 11.972 19.6301L12.013 19.6331H12.055C12.781 19.6331 13.538 19.5701 14.107 19.1911C14.874 18.6791 14.935 17.8941 14.935 17.5021V16.3641C15.132 16.5241 15.376 16.7381 15.675 17.0261C16.037 17.3881 16.325 17.7021 16.572 17.9761L16.704 18.1221C16.896 18.3361 17.085 18.5471 17.257 18.7201C17.473 18.9371 17.74 19.1761 18.074 19.3531C18.437 19.5441 18.818 19.6311 19.222 19.6311H21.503C21.984 19.6311 22.673 19.5171 23.158 18.9551C23.686 18.3431 23.646 17.5921 23.48 17.0531L23.45 16.9561L23.405 16.8651ZM17.685 16.9711C17.3751 16.6246 17.056 16.2865 16.728 15.9571L16.725 15.9541C15.368 14.6461 14.735 14.4191 14.287 14.4191C14.048 14.4191 13.785 14.4451 13.614 14.6591C13.5379 14.7617 13.4875 14.881 13.467 15.0071C13.4432 15.1539 13.4324 15.3025 13.435 15.4511V17.5021C13.435 17.7571 13.393 17.8641 13.275 17.9421C13.118 18.0471 12.783 18.1321 12.064 18.1321C10.6982 18.0392 9.37398 17.6234 8.20018 16.919C7.02637 16.2146 6.03652 15.2416 5.312 14.0801L5.304 14.0671L5.294 14.0551C3.55218 11.8889 2.3388 9.34671 1.75 6.63011C1.754 6.50011 1.782 6.42111 1.828 6.37311C1.875 6.32311 1.99 6.25311 2.282 6.25311H4.562C4.815 6.25311 4.947 6.30911 5.042 6.39411C5.148 6.49211 5.242 6.65711 5.354 6.95111C5.914 8.59711 6.67 10.1371 7.387 11.2691C7.745 11.8341 8.097 12.3051 8.415 12.6381C8.574 12.8041 8.729 12.9421 8.878 13.0401C9.021 13.1341 9.184 13.2091 9.352 13.2091C9.44 13.2091 9.543 13.1991 9.642 13.1561C9.74905 13.1091 9.83712 13.0274 9.892 12.9241C9.995 12.7361 10.024 12.4591 10.024 12.0961V8.72311C9.971 7.90511 9.724 7.44411 9.484 7.11711C9.43532 7.05177 9.38531 6.98742 9.334 6.92411L9.321 6.90811C9.27856 6.85616 9.23787 6.80279 9.199 6.74811C9.1503 6.68665 9.12075 6.61223 9.114 6.53411C9.12185 6.45465 9.15976 6.38119 9.21999 6.32876C9.28022 6.27634 9.35821 6.24892 9.438 6.25211H13.033C13.239 6.25211 13.308 6.30211 13.343 6.34911C13.393 6.41411 13.435 6.54911 13.435 6.83311V11.3611C13.435 11.8991 13.683 12.2631 14.043 12.2631C14.457 12.2631 14.756 12.0121 15.278 11.4901L15.287 11.4801L15.295 11.4711C16.4661 10.0435 17.4228 8.45275 18.135 6.74911L18.139 6.73711C18.1922 6.58641 18.2935 6.45734 18.4272 6.36973C18.5608 6.28211 18.7196 6.24079 18.879 6.25211H21.179C21.491 6.25211 21.593 6.33211 21.627 6.37911C21.662 6.42911 21.687 6.53611 21.627 6.74611C20.8057 8.58252 19.7903 10.3258 18.598 11.9461L18.59 11.9581C18.475 12.1351 18.348 12.3311 18.33 12.5551C18.31 12.7971 18.414 13.0161 18.597 13.2521C18.73 13.4481 19.005 13.7171 19.284 13.9901L19.31 14.0161C19.602 14.3021 19.919 14.6121 20.173 14.9121L20.18 14.9191L20.187 14.9271C20.9443 15.6827 21.5741 16.556 22.052 17.5131C22.128 17.7731 22.082 17.9071 22.022 17.9761C21.953 18.0561 21.798 18.1311 21.504 18.1311H19.222C19.0664 18.1354 18.9124 18.0992 18.775 18.0261C18.6067 17.9276 18.4538 17.8049 18.321 17.6621C18.178 17.5191 18.023 17.3461 17.833 17.1351L17.685 16.9711Z" fill="#335892"/>
</svg>
