<svg width="16" height="16" viewBox="0 0 16 16" fill="none" xmlns="http://www.w3.org/2000/svg">
<path d="M1.34421 11.3278C1.59511 11.9029 0.903182 13.3093 0.950976 13.9084C1.06568 15.4326 2.98223 14.5435 3.92617 13.9084C5.71846 14.915 9.48474 14.9223 12.0621 12.8016C14.858 10.5011 15.5033 4.71352 11.7395 2.12521C7.77477 -0.601268 4.13844 1.29841 2.56296 2.91604C-0.448028 6.00759 1.15688 10.8984 1.34421 11.3278Z" stroke="#335892" stroke-width="1.5"/>
<path d="M4.58992 9.56746C4.75593 10.1135 4.65632 9.84049 4.85554 10.3866C4.83362 11.186 5.75739 10.5746 6.19484 10.2785C7.02544 10.7479 8.47188 10.9891 9.6663 10.0001C10.962 8.92725 11.261 6.22825 9.51679 5.0212C7.67944 3.74973 5.99425 4.63563 5.26413 5.39C3.86875 6.83173 4.52631 9.3582 4.58992 9.56746Z" stroke="#335892" stroke-width="1.5"/>
</svg>
