<svg width="20" height="20" viewBox="0 0 20 20" fill="none" xmlns="http://www.w3.org/2000/svg">
<path fill-rule="evenodd" clip-rule="evenodd" d="M19.5041 14.0542C19.0507 13.1413 18.4533 12.3073 17.7349 11.5842C17.4943 11.3129 17.2427 11.0516 16.9808 10.8008L16.9491 10.77C16.8518 10.6757 16.7556 10.5801 16.6608 10.4833C17.6431 9.11738 18.4835 7.65482 19.1691 6.11835L19.1966 6.05668L19.2158 5.99168C19.3066 5.68918 19.4099 5.11418 19.0433 4.59418C18.6632 4.05751 18.0558 3.96085 17.6483 3.96085H15.7758C15.3836 3.94272 14.9958 4.04923 14.668 4.26511C14.3401 4.48098 14.089 4.79513 13.9508 5.16251C13.5478 6.12223 13.0433 7.03605 12.4458 7.88835V5.69418C12.4458 5.41085 12.4191 4.93585 12.1149 4.53585C11.7516 4.05585 11.2258 3.96085 10.8608 3.96085H7.88909C7.50131 3.95192 7.12496 4.09248 6.83797 4.35341C6.55099 4.61434 6.37534 4.97564 6.34742 5.36251L6.34492 5.40001V5.43751C6.34492 5.84168 6.50492 6.14001 6.63325 6.32751C6.69075 6.41168 6.75159 6.48835 6.79075 6.53668L6.79909 6.54751C6.84075 6.59918 6.86825 6.63335 6.89575 6.67168C6.96908 6.77001 7.07325 6.92335 7.10325 7.31835V8.54585C6.50681 7.5469 6.0177 6.48768 5.64408 5.38585L5.63742 5.36751L5.63075 5.35001C5.52909 5.08418 5.36658 4.69751 5.04075 4.40251C4.66075 4.05668 4.21075 3.96085 3.80158 3.96085H1.90159C1.48742 3.96085 0.988252 4.05751 0.615752 4.45001C0.249919 4.83668 0.208252 5.30001 0.208252 5.54501V5.65668L0.231585 5.76501C0.756805 8.20762 1.84101 10.4953 3.39909 12.4483C4.11102 13.5711 5.07759 14.5103 6.22041 15.1897C7.36322 15.869 8.65008 16.2694 9.97659 16.3583L10.0108 16.3608H10.0458C10.6508 16.3608 11.2816 16.3083 11.7558 15.9925C12.3949 15.5658 12.4458 14.9117 12.4458 14.585V13.6367C12.6099 13.77 12.8133 13.9483 13.0624 14.1883C13.3641 14.49 13.6041 14.7517 13.8099 14.98L13.9199 15.1017C14.0799 15.28 14.2374 15.4558 14.3808 15.6C14.5608 15.7808 14.7833 15.98 15.0616 16.1275C15.3641 16.2867 15.6816 16.3592 16.0183 16.3592H17.9191C18.3199 16.3592 18.8941 16.2642 19.2983 15.7958C19.7383 15.2858 19.7049 14.66 19.5666 14.2108L19.5416 14.13L19.5041 14.0542ZM14.7374 14.1425C14.4792 13.8538 14.2133 13.572 13.9399 13.2975L13.9374 13.295C12.8066 12.205 12.2791 12.0158 11.9058 12.0158C11.7066 12.0158 11.4874 12.0375 11.3449 12.2158C11.2815 12.3013 11.2395 12.4008 11.2224 12.5058C11.2025 12.6281 11.1936 12.752 11.1958 12.8758V14.585C11.1958 14.7975 11.1608 14.8867 11.0624 14.9517C10.9316 15.0392 10.6524 15.11 10.0533 15.11C8.91509 15.0326 7.81157 14.6861 6.8334 14.0991C5.85523 13.5121 5.03035 12.7013 4.42659 11.7333L4.41992 11.7225L4.41159 11.7125C2.96007 9.9073 1.94892 7.78885 1.45825 5.52501C1.46159 5.41668 1.48492 5.35085 1.52325 5.31085C1.56242 5.26918 1.65825 5.21085 1.90159 5.21085H3.80158C4.01242 5.21085 4.12242 5.25751 4.20159 5.32835C4.28992 5.41001 4.36825 5.54751 4.46159 5.79251C4.92825 7.16418 5.55825 8.44751 6.15575 9.39085C6.45409 9.86168 6.74742 10.2542 7.01242 10.5317C7.14492 10.67 7.27409 10.785 7.39825 10.8667C7.51742 10.945 7.65325 11.0075 7.79325 11.0075C7.86659 11.0075 7.95242 10.9992 8.03492 10.9633C8.12412 10.9242 8.19752 10.856 8.24325 10.77C8.32909 10.6133 8.35325 10.3825 8.35325 10.08V7.26918C8.30908 6.58751 8.10325 6.20335 7.90325 5.93085C7.86268 5.87639 7.82101 5.82277 7.77825 5.77001L7.76742 5.75668C7.73205 5.71338 7.69814 5.66891 7.66575 5.62335C7.62517 5.57213 7.60054 5.51011 7.59492 5.44501C7.60146 5.37879 7.63305 5.31758 7.68325 5.27389C7.73344 5.2302 7.79843 5.20735 7.86492 5.21001H10.8608C11.0324 5.21001 11.0899 5.25168 11.1191 5.29085C11.1608 5.34501 11.1958 5.45751 11.1958 5.69418V9.46751C11.1958 9.91585 11.4024 10.2192 11.7024 10.2192C12.0474 10.2192 12.2966 10.01 12.7316 9.57501L12.7391 9.56668L12.7458 9.55918C13.7217 8.36948 14.5189 7.04388 15.1124 5.62418L15.1158 5.61418C15.1601 5.48859 15.2445 5.38104 15.3559 5.30803C15.4673 5.23501 15.5996 5.20058 15.7324 5.21001H17.6491C17.9091 5.21001 17.9941 5.27668 18.0224 5.31585C18.0516 5.35751 18.0724 5.44668 18.0224 5.62168C17.338 7.15202 16.4918 8.60474 15.4983 9.95501L15.4916 9.96501C15.3958 10.1125 15.2899 10.2758 15.2749 10.4625C15.2583 10.6642 15.3449 10.8467 15.4974 11.0433C15.6083 11.2067 15.8374 11.4308 16.0699 11.6583L16.0916 11.68C16.3349 11.9183 16.5991 12.1767 16.8108 12.4267L16.8166 12.4325L16.8224 12.4392C17.4535 13.0688 17.9784 13.7966 18.3766 14.5942C18.4399 14.8108 18.4016 14.9225 18.3516 14.98C18.2941 15.0467 18.1649 15.1092 17.9199 15.1092H16.0183C15.8886 15.1127 15.7603 15.0826 15.6458 15.0217C15.5055 14.9396 15.3781 14.8374 15.2674 14.7183C15.1483 14.5992 15.0191 14.455 14.8608 14.2792L14.7374 14.1425Z" fill="#4080F5"/>
</svg>
