<svg width="15" height="15" viewBox="0 0 15 15" fill="none" xmlns="http://www.w3.org/2000/svg">
<path d="M1.09421 11.0778C1.34511 11.6529 0.653182 13.0593 0.700976 13.6584C0.815684 15.1826 2.73223 14.2935 3.67617 13.6584C5.46846 14.665 9.23474 14.6723 11.8121 12.5516C14.608 10.2511 15.2533 4.46352 11.4895 1.87521C7.52477 -0.851268 3.88844 1.04841 2.31296 2.66604C-0.698028 5.75759 0.906885 10.6484 1.09421 11.0778Z" stroke="white"/>
<path d="M4.33992 9.31746C4.50593 9.86352 4.40632 9.59049 4.60554 10.1366C4.58362 10.936 5.50739 10.3246 5.94484 10.0285C6.77544 10.4979 8.22188 10.7391 9.4163 9.75009C10.712 8.67725 11.011 5.97825 9.26679 4.7712C7.42944 3.49973 5.74425 4.38563 5.01413 5.14C3.61875 6.58173 4.27631 9.1082 4.33992 9.31746Z" stroke="white"/>
</svg>
