<svg width="17" height="17" viewBox="0 0 17 17" fill="none" xmlns="http://www.w3.org/2000/svg">
<path d="M13.4938 3.47828C12.8443 2.82244 12.0708 2.30242 11.2183 1.94854C10.3658 1.59465 9.45142 1.41397 8.5284 1.41703C4.6609 1.41703 1.50882 4.56911 1.50882 8.43661C1.50882 9.6762 1.83465 10.8804 2.44382 11.9429L1.45215 15.5837L5.1709 14.6062C6.19798 15.1658 7.35256 15.4633 8.5284 15.4633C12.3959 15.4633 15.548 12.3112 15.548 8.4437C15.548 6.56661 14.8184 4.80286 13.4938 3.47828ZM8.5284 14.2733C7.48006 14.2733 6.45298 13.9899 5.5534 13.4587L5.3409 13.3312L3.1309 13.912L3.71882 11.7587L3.57715 11.5391C2.99458 10.6091 2.6853 9.53402 2.68465 8.43661C2.68465 5.22078 5.30548 2.59995 8.52131 2.59995C10.0796 2.59995 11.5459 3.20911 12.6438 4.31411C13.1875 4.85518 13.6184 5.49883 13.9115 6.20772C14.2045 6.91661 14.3539 7.67663 14.3509 8.4437C14.3651 11.6595 11.7442 14.2733 8.5284 14.2733ZM11.7301 9.90995C11.553 9.82495 10.6888 9.39995 10.533 9.3362C10.3701 9.27953 10.2567 9.2512 10.1363 9.4212C10.0159 9.59828 9.68298 9.99495 9.58381 10.1083C9.48465 10.2287 9.3784 10.2429 9.20131 10.1508C9.02423 10.0658 8.45756 9.87453 7.79173 9.27953C7.26756 8.81203 6.92048 8.23828 6.81423 8.0612C6.71506 7.88411 6.80006 7.79203 6.89215 7.69995C6.97006 7.62203 7.06923 7.49453 7.15423 7.39536C7.23923 7.2962 7.27465 7.21828 7.33132 7.10495C7.38798 6.98453 7.35965 6.88536 7.31715 6.80036C7.27465 6.71536 6.92048 5.8512 6.77881 5.49703C6.63715 5.15703 6.4884 5.19953 6.38215 5.19245H6.04215C5.92173 5.19245 5.73756 5.23495 5.57465 5.41203C5.41881 5.58911 4.96548 6.01411 4.96548 6.87828C4.96548 7.74245 5.5959 8.57828 5.6809 8.69161C5.7659 8.81203 6.92048 10.5829 8.67715 11.3408C9.09506 11.5249 9.4209 11.6312 9.6759 11.7091C10.0938 11.8437 10.4763 11.8224 10.7809 11.7799C11.1209 11.7304 11.8221 11.3549 11.9638 10.9441C12.1126 10.5333 12.1126 10.1862 12.063 10.1083C12.0134 10.0304 11.9071 9.99495 11.7301 9.90995Z" fill="white"/>
</svg>
