<svg width="183" height="55" viewBox="0 0 183 55" fill="none" xmlns="http://www.w3.org/2000/svg">
<path d="M44.755 47.2102C43.9354 48.0781 42.9653 48.7379 41.9635 49.3477C39.7423 50.699 37.3694 51.6977 34.8379 52.3226C32.9377 52.7909 31.0092 52.9789 29.0538 52.9299C25.8637 52.8493 22.8712 52.0095 20.0385 50.5846C15.7361 48.4202 12.4578 45.206 10.1437 41.0117C8.89499 38.7482 8.04135 36.3433 7.69448 33.7854C7.17589 29.9532 7.77793 26.2928 9.55344 22.8367C10.6364 20.7284 12.0158 18.8515 13.9029 17.3752C15.6185 16.032 17.5493 15.1665 19.6952 14.7472C20.9522 14.5019 22.215 14.419 23.4861 14.4949C24.6726 14.565 25.8272 14.8009 26.8185 15.5076C27.4499 15.9572 27.9367 16.5191 28.012 17.3378C28.0602 17.8564 27.8486 18.2675 27.4699 18.5957C26.7832 19.189 25.9954 19.5289 25.0736 19.606C21.6259 19.891 18.8415 21.3779 16.8108 24.1881C15.5527 25.9283 14.8589 27.8824 14.6261 30.0047C14.3309 32.6922 14.8684 35.2267 16.0266 37.6538C17.1366 39.9781 18.5534 42.0781 20.4571 43.8453C22.482 45.7257 24.8361 47.014 27.4828 47.7931C29.1525 48.2848 30.8599 48.5417 32.599 48.6539C34.8331 48.7987 37.0496 48.6749 39.2473 48.2988C40.9428 48.0079 42.6244 47.6342 44.3117 47.2978C44.4586 47.2686 44.6068 47.2406 44.7538 47.2114L44.755 47.2102Z" fill="white"/>
<path d="M34.142 1.375C35.3296 1.53034 36.4349 1.92862 37.5179 2.38063C39.9178 3.38394 42.1201 4.71661 44.1062 6.39501C45.5972 7.65524 46.8765 9.10126 47.9759 10.7084C49.7703 13.3293 50.8285 16.233 51.3153 19.3504C52.0538 24.0842 51.3377 28.6043 49.2576 32.9176C48.1347 35.2455 46.666 37.3374 44.7764 39.1091C41.945 41.7629 38.5996 43.4108 34.7381 43.9948C32.3817 44.3499 30.0429 44.3312 27.736 43.6714C25.637 43.071 23.8028 42.0175 22.2095 40.5294C21.2758 39.6581 20.4716 38.6875 19.7919 37.6177C19.157 36.619 18.6772 35.5503 18.676 34.3379C18.676 33.5659 18.8512 32.8452 19.4768 32.3068C19.873 31.9657 20.3328 31.8968 20.8219 32.0113C21.7074 32.2192 22.4458 32.656 23.0455 33.3556C25.289 35.9708 28.1287 37.3513 31.6116 37.3502C33.7693 37.3502 35.7706 36.7709 37.6425 35.7208C40.013 34.3917 41.7721 32.4797 43.0809 30.1297C44.3343 27.879 45.2256 25.5102 45.5595 22.9442C45.9158 20.2135 45.5972 17.5621 44.6906 14.9727C44.1191 13.3387 43.3336 11.811 42.4106 10.3428C41.2253 8.45652 39.8332 6.73957 38.2434 5.18497C37.017 3.98545 35.7306 2.84783 34.4713 1.68218C34.3607 1.58056 34.2526 1.47778 34.142 1.37617V1.375Z" fill="white"/>
<path d="M0.183039 30.2574C-0.0497796 29.0906 -0.023911 27.9227 0.0607505 26.7593C0.248887 24.1792 0.813297 21.6808 1.77749 19.2737C2.50064 17.4667 3.47072 15.8001 4.65011 14.2501C6.57496 11.7214 9.00429 9.79431 11.8204 8.33777C16.0971 6.12563 20.6382 5.35126 25.418 5.9259C27.9978 6.23659 30.4636 6.94792 32.7589 8.15799C36.1971 9.97182 38.8415 12.5904 40.6347 16.0372C41.7294 18.1395 42.4608 20.3471 42.5701 22.7298C42.6702 24.8964 42.2539 26.9602 41.3461 28.9364C40.8146 30.0939 40.1467 31.1614 39.3449 32.1449C38.597 33.0617 37.7303 33.856 36.5745 34.2461C35.8384 34.4937 35.0953 34.5591 34.3816 34.1433C33.9288 33.8793 33.716 33.4694 33.6678 32.973C33.5819 32.0736 33.763 31.2385 34.2381 30.4501C36.0136 27.501 36.4193 24.3859 35.3022 21.1097C34.6109 19.0798 33.4161 17.3827 31.8146 15.9566C29.7874 14.152 27.4005 13.1103 24.7395 12.6313C22.1914 12.1735 19.6469 12.0941 17.093 12.6021C14.3755 13.1417 11.9486 14.291 9.76979 15.9741C8.39523 17.0358 7.18997 18.2646 6.08464 19.603C4.66539 21.3223 3.47425 23.1829 2.50182 25.1779C1.75163 26.7161 1.07786 28.2917 0.371176 29.8499C0.308855 29.9865 0.246535 30.122 0.184215 30.2574H0.183039Z" fill="white"/>
<path d="M122.459 33.845V36.169C122.459 38.964 121.284 40.5625 119.019 40.5625C116.754 40.5625 115.579 38.964 115.579 36.169V27.0809C115.579 24.2848 116.753 22.6875 119.019 22.6875C121.285 22.6875 122.459 24.286 122.459 27.0809V28.7778H120.277V26.9051C120.277 25.657 119.815 25.1836 119.082 25.1836C118.348 25.1836 117.886 25.657 117.886 26.9051V36.3412C117.886 37.5892 118.347 38.0381 119.082 38.0381C119.816 38.0381 120.277 37.5892 120.277 36.3412V33.845H122.459Z" fill="white"/>
<path d="M125.757 40.2251H123.492V23.375H125.456V34.0403L126.258 30.333L128.063 23.375H130.488V40.2275H128.504V28.356L127.598 32.4974L125.757 40.2251Z" fill="white"/>
<path d="M138.441 33.4489V35.6903C138.441 38.386 137.318 39.9278 135.153 39.9278C132.988 39.9278 131.864 38.386 131.864 35.6903V26.9249C131.864 24.2281 132.986 22.6875 135.153 22.6875C137.318 22.6875 138.441 24.2292 138.441 26.9249V28.5616H136.355V26.7553C136.355 25.5516 135.914 25.095 135.213 25.095C134.512 25.095 134.07 25.5516 134.07 26.7553V35.8564C134.07 37.0601 134.51 37.493 135.213 37.493C135.915 37.493 136.355 37.0601 136.355 35.8564V33.4489H138.441Z" fill="white"/>
<path d="M139.817 23.375H146.632V25.7825H144.328V40.2275H142.123V25.7801H139.817V23.375Z" fill="white"/>
<path d="M150.213 30.4754H153.241V32.8828H150.213V37.8176H154.022V40.2251H148.008V23.375H154.022V25.7825H150.213V30.4754Z" fill="white"/>
<path d="M160.09 35.3378L161.594 23.375H164.662V40.2275H162.577V28.1402L161.053 40.2251H158.968L157.323 28.3086V40.2251H155.398V23.375H158.466L160.09 35.3378Z" fill="white"/>
<path d="M63.4294 33.509L62.7469 35.0507V40.2263H60.5413V23.375H62.7469V30.7161L65.635 23.375H67.8406L64.773 30.8869L67.8406 40.2275H65.5744L63.4294 33.509Z" fill="white"/>
<path d="M69.2166 37.8437C70.2189 37.8437 70.5402 37.6741 70.5801 36.1098L70.9413 23.375H77.1764V40.2275H74.9308V25.7801H73.0052L72.7658 35.964C72.6853 39.0475 71.7627 40.25 69.5578 40.25H69.2166V37.8437Z" fill="white"/>
<path d="M81.506 40.2251H79.2405V23.375H81.2039V34.0403L82.0061 30.333L83.8113 23.375H86.2413V40.2275H84.2558V28.356L83.3532 32.4974L81.506 40.2251Z" fill="white"/>
<path d="M92.7527 35.3378L94.2559 23.375H97.3243V40.2275H95.2397V28.1402L93.7152 40.2251H91.6306L89.985 28.3086V40.2251H88.0601V23.375H91.1277L92.7527 35.3378Z" fill="white"/>
<path d="M106.781 40.2251H104.556L104.174 37.1677H101.469L101.087 40.2251H99.0676L101.308 23.375H104.536L106.781 40.2251ZM101.749 34.8788H103.874L102.812 26.3553L101.749 34.8788Z" fill="white"/>
<path d="M107.325 23.375H114.14V25.7825H111.834V40.2275H109.629V25.7801H107.323L107.325 23.375Z" fill="white"/>
<path d="M173.758 40.2251H171.532L171.151 37.1677H168.444L168.063 40.2251H166.038L168.284 23.375H171.511L173.758 40.2251ZM168.72 34.8812H170.845L169.786 26.3577L168.72 34.8812Z" fill="white"/>
</svg>
