<svg width="266" height="80" viewBox="0 0 266 80" fill="none" xmlns="http://www.w3.org/2000/svg">
<path d="M65.0539 68.6696C63.8625 69.9319 62.4525 70.8917 60.9963 71.7786C57.7677 73.7442 54.3186 75.1968 50.6388 76.1057C47.8768 76.7869 45.0737 77.0604 42.2314 76.9891C37.5944 76.8719 33.2446 75.6503 29.1272 73.5777C22.8734 70.4296 18.1083 65.7543 14.7446 59.6535C12.9295 56.3612 11.6887 52.8631 11.1845 49.1426C10.4307 43.5685 11.3058 38.2442 13.8866 33.2172C15.4608 30.1506 17.4657 27.4206 20.2088 25.2732C22.7025 23.3194 25.509 22.0606 28.6282 21.4506C30.4553 21.0939 32.2909 20.9733 34.1385 21.0837C35.8631 21.1856 37.5414 21.5288 38.9823 22.5566C39.9001 23.2107 40.6076 24.0279 40.7171 25.2188C40.7871 25.9731 40.4795 26.5711 39.9291 27.0485C38.931 27.9115 37.7859 28.4059 36.4459 28.518C31.4346 28.9326 27.3873 31.0953 24.4356 35.1828C22.6068 37.7141 21.5984 40.5564 21.26 43.6433C20.8309 47.5524 21.6121 51.239 23.2956 54.7693C24.9091 58.1501 26.9685 61.2047 29.7357 63.7751C32.6789 66.5103 36.1007 68.3842 39.9479 69.5174C42.3749 70.2326 44.8567 70.6063 47.3845 70.7695C50.6319 70.9801 53.8537 70.8 57.0481 70.253C59.5127 69.8299 61.9569 69.2863 64.4095 68.797C64.6231 68.7545 64.8385 68.7137 65.0522 68.6713L65.0539 68.6696Z" fill="#0056F1"/>
<path d="M49.6271 2C51.3533 2.22595 52.96 2.80527 54.5341 3.46274C58.0225 4.92209 61.2237 6.86053 64.1106 9.30183C66.2778 11.1349 68.1373 13.2382 69.7354 15.5758C72.3436 19.3881 73.8818 23.6116 74.5894 28.146C75.6628 35.0315 74.6219 41.6063 71.5984 47.8802C69.9662 51.2662 67.8314 54.3089 65.0848 56.886C60.9691 60.746 56.1065 63.143 50.4936 63.9925C47.0684 64.5089 43.6689 64.4818 40.3156 63.522C37.2647 62.6487 34.5985 61.1163 32.2826 58.9519C30.9254 57.6845 29.7564 56.2727 28.7685 54.7166C27.8456 53.264 27.1482 51.7095 27.1465 49.9461C27.1465 48.8231 27.4011 47.7749 28.3104 46.9917C28.8864 46.4956 29.5547 46.3954 30.2657 46.5619C31.5527 46.8643 32.626 47.4997 33.4977 48.5173C36.7588 52.3211 40.8864 54.3292 45.949 54.3275C49.0853 54.3275 51.9943 53.4849 54.7153 51.9576C58.1609 50.0243 60.7178 47.2432 62.6202 43.825C64.4421 40.5512 65.7377 37.1058 66.2231 33.3734C66.7409 29.4014 66.2778 25.5449 64.96 21.7785C64.1293 19.4017 62.9876 17.1796 61.6459 15.0441C59.9231 12.3004 57.8995 9.80301 55.5887 7.54178C53.806 5.79702 51.9362 4.1423 50.1057 2.44681C49.945 2.299 49.7878 2.1495 49.6271 2.0017V2Z" fill="#F20952"/>
<path d="M0.266057 44.0101C-0.0723573 42.3129 -0.0347558 40.6141 0.088304 38.922C0.36177 35.1691 1.18217 31.5351 2.58368 28.0338C3.63481 25.4055 5.04487 22.9813 6.75917 20.7268C9.55705 17.0487 13.0882 14.2456 17.1816 12.127C23.3979 8.90934 29.9987 7.78298 36.9464 8.61883C40.6963 9.07074 44.2804 10.1054 47.6167 11.8655C52.6143 14.5038 56.4582 18.3127 59.0647 23.3261C60.6559 26.3841 61.719 29.5951 61.8779 33.0608C62.0233 36.2123 61.4182 39.2142 60.0987 42.0886C59.3262 43.7723 58.3553 45.325 57.1898 46.7556C56.1027 48.0891 54.843 49.2444 53.163 49.8119C52.093 50.172 51.0128 50.2671 49.9754 49.6623C49.3173 49.2783 49.008 48.6821 48.9379 47.96C48.8131 46.6519 49.0763 45.4372 49.7668 44.2904C52.3477 40.0008 52.9373 35.4698 51.3136 30.7044C50.3087 27.7517 48.5721 25.2833 46.2442 23.2089C43.2976 20.5841 39.828 19.0688 35.9602 18.3722C32.2564 17.7062 28.5578 17.5907 24.8456 18.3297C20.8956 19.1146 17.3679 20.7863 14.2009 23.2344C12.2029 24.7787 10.451 26.566 8.84434 28.5128C6.78139 31.0136 5.05 33.7199 3.63653 36.6217C2.54608 38.8591 1.56673 41.1509 0.539523 43.4173C0.448937 43.616 0.358352 43.8131 0.267766 44.0101H0.266057Z" fill="#004DC3"/>
<path d="M177.501 48.6529V51.9132C177.501 55.8342 175.869 58.0768 172.722 58.0768C169.575 58.0768 167.943 55.8342 167.943 51.9132V39.1635C167.943 35.2408 169.574 33 172.722 33C175.87 33 177.501 35.2425 177.501 39.1635V41.5441H174.471V38.9168C174.471 37.1659 173.829 36.5018 172.81 36.5018C171.79 36.5018 171.149 37.1659 171.149 38.9168V52.1547C171.149 53.9056 171.789 54.5353 172.81 54.5353C173.83 54.5353 174.471 53.9056 174.471 52.1547V48.6529H177.501Z" fill="#004DC3"/>
<path d="M182.795 58.5092H179.501V34H182.357V49.5132L183.523 44.1208L186.146 34H189.672V58.5127H186.788V41.2451L185.47 47.2689L182.795 58.5092Z" fill="#004DC3"/>
<path d="M201.231 48.6529V51.9132C201.231 55.8342 199.599 58.0768 196.452 58.0768C193.305 58.0768 191.672 55.8342 191.672 51.9132V39.1635C191.672 35.2408 193.303 33 196.452 33C199.6 33 201.231 35.2425 201.231 39.1635V41.5441H198.2V38.9168C198.2 37.1659 197.558 36.5018 196.539 36.5018C195.52 36.5018 194.878 37.1659 194.878 38.9168V52.1547C194.878 53.9056 195.518 54.5353 196.539 54.5353C197.56 54.5353 198.2 53.9056 198.2 52.1547V48.6529H201.231Z" fill="#004DC3"/>
<path d="M203.231 34H213.137V37.5018H209.789V58.5127H206.584V37.4984H203.231V34Z" fill="#004DC3"/>
<path d="M218.343 44.3278H222.744V47.8296H218.343V55.0074H223.88V58.5092H215.137V34H223.88V37.5018H218.343V44.3278Z" fill="#004DC3"/>
<path d="M232.699 51.4004L234.886 34H239.345V58.5127H236.314V40.9312L234.099 58.5092H231.069L228.678 41.1761V58.5092H225.88V34H230.339L232.699 51.4004Z" fill="#004DC3"/>
<path d="M92.198 48.7404L91.206 50.9829V58.511H88V34H91.206V44.6779L95.404 34H98.61L94.151 44.9264L98.61 58.5127H95.316L92.198 48.7404Z" fill="#004DC3"/>
<path d="M100.61 55.0454C102.067 55.0454 102.534 54.7987 102.592 52.5234L103.117 34H112.18V58.5127H108.916V37.4984H106.117L105.769 52.3112C105.652 56.7963 104.311 58.5455 101.106 58.5455H100.61V55.0454Z" fill="#004DC3"/>
<path d="M118.473 58.5092H115.18V34H118.034V49.5132L119.2 44.1208L121.824 34H125.356V58.5127H122.47V41.2451L121.158 47.2689L118.473 58.5092Z" fill="#004DC3"/>
<path d="M134.821 51.4004L137.006 34H141.466V58.5127H138.436V40.9312L136.22 58.5092H133.19L130.798 41.1761V58.5092H128V34H132.459L134.821 51.4004Z" fill="#004DC3"/>
<path d="M155.212 58.5092H151.978L151.423 54.0621H147.49L146.936 58.5092H144L147.256 34H151.949L155.212 58.5092ZM147.897 50.7328H150.987L149.442 38.335L147.897 50.7328Z" fill="#004DC3"/>
<path d="M156.003 34H165.909V37.5018H162.557V58.5127H159.351V37.4984H156L156.003 34Z" fill="#004DC3"/>
<path d="M252.566 58.5092H249.331L248.777 54.0621H244.842L244.289 58.5092H241.345L244.61 34H249.301L252.566 58.5092ZM245.244 50.7363H248.332L246.793 38.3385L245.244 50.7363Z" fill="#004DC3"/>
</svg>
