<svg width="86" height="82" viewBox="0 0 86 82" fill="none" xmlns="http://www.w3.org/2000/svg">
<ellipse cx="43" cy="41" rx="43" ry="41" fill="#EFF5FF"/>
<path d="M32.1648 19.1678C31.4796 19.1678 30.8225 19.44 30.3381 19.9244C29.8536 20.4089 29.5814 21.066 29.5814 21.7511V37.5017C28.7528 37.1861 27.8409 37.1642 26.9981 37.4397V21.7511C26.9981 20.3809 27.5424 19.0667 28.5114 18.0978C29.4803 17.1288 30.7945 16.5845 32.1648 16.5845H48.6439L48.8505 16.5896C48.9909 16.5779 49.1323 16.5893 49.269 16.6232C50.4143 16.7622 51.4802 17.2806 52.2967 18.0957L66.8176 32.6192C67.6337 33.4354 68.153 34.5012 68.2927 35.6469C68.3266 35.7836 68.338 35.925 68.3263 36.0654L68.3314 36.2721V63.0845C68.3314 64.4548 67.7871 65.7689 66.8182 66.7379C65.8492 67.7068 64.5351 68.2511 63.1648 68.2511H47.3522C47.6393 67.4124 47.6302 66.5006 47.3264 65.6678H63.1648C63.8499 65.6678 64.507 65.3956 64.9915 64.9112C65.4759 64.4267 65.7481 63.7696 65.7481 63.0845V37.2511H52.8314C51.4612 37.2511 50.147 36.7068 49.1781 35.7379C48.2091 34.7689 47.6648 33.4548 47.6648 32.0845V19.1678H32.1648ZM50.4703 19.9247C50.4001 19.8542 50.3259 19.7878 50.2481 19.7258V32.0845C50.2481 32.7696 50.5203 33.4267 51.0047 33.9112C51.4892 34.3956 52.1463 34.6678 52.8314 34.6678H65.1901C65.1281 34.59 65.0617 34.5158 64.9912 34.4456L50.4703 19.9247ZM24.6421 56.4014C23.7525 55.2516 22.5413 54.392 21.1624 53.9317L17.6025 52.7744C17.3292 52.6771 17.0927 52.4976 16.9255 52.2606C16.7582 52.0235 16.6685 51.7405 16.6685 51.4504C16.6685 51.1603 16.7582 50.8773 16.9255 50.6403C17.0927 50.4032 17.3292 50.2238 17.6025 50.1265L21.1624 48.9691C22.2157 48.6054 23.1724 48.0064 23.9598 47.2177C24.7471 46.429 25.3445 45.4713 25.7064 44.4173L25.7349 44.3295L26.8922 40.7722C26.9884 40.4971 27.1678 40.2588 27.4054 40.0901C27.6431 39.9214 27.9273 39.8308 28.2187 39.8308C28.5102 39.8308 28.7944 39.9214 29.032 40.0901C29.2697 40.2588 29.4491 40.4971 29.5453 40.7722L30.7 44.3295C31.0607 45.4104 31.6683 46.3925 32.4745 47.1978C33.2807 48.0032 34.2635 48.6096 35.3449 48.9691L38.9047 50.1265L38.977 50.1446C39.2503 50.2418 39.4868 50.4213 39.6541 50.6584C39.8213 50.8954 39.9111 51.1784 39.9111 51.4685C39.9111 51.7586 39.8213 52.0416 39.6541 52.2787C39.4868 52.5157 39.2503 52.6952 38.977 52.7925L35.4172 53.9498C34.3358 54.3093 33.3531 54.9158 32.5469 55.7211C31.7406 56.5264 31.1331 57.5085 30.7724 58.5895L29.615 62.1467C29.5203 62.4221 29.3402 62.6601 29.1009 62.8261C28.9236 62.9516 28.7195 63.0341 28.5049 63.0674C28.2902 63.1007 28.0707 63.0837 27.8637 63.0179C27.6567 62.9521 27.4678 62.8391 27.3117 62.688C27.1557 62.5368 27.0369 62.3516 26.9645 62.1467L25.8072 58.5895C25.5487 57.7978 25.1554 57.0567 24.6447 56.3988M44.5234 66.2155L42.5472 65.5748C41.9461 65.375 41.3997 65.038 40.9513 64.5905C40.5029 64.1431 40.1649 63.5974 39.9639 62.9966L39.3232 61.0204C39.2697 60.8678 39.1701 60.7356 39.0382 60.6421C38.9063 60.5485 38.7486 60.4983 38.5869 60.4983C38.4252 60.4983 38.2675 60.5485 38.1356 60.6421C38.0037 60.7356 37.9042 60.8678 37.8507 61.0204L37.2049 62.9941C37.0086 63.5906 36.6774 64.1338 36.237 64.5814C35.7965 65.029 35.2587 65.369 34.6654 65.5748L32.6892 66.2155C32.5366 66.269 32.4044 66.3685 32.3109 66.5004C32.2173 66.6323 32.1671 66.79 32.1671 66.9517C32.1671 67.1134 32.2173 67.2711 32.3109 67.403C32.4044 67.5349 32.5366 67.6345 32.6892 67.688L34.6654 68.3312C35.2677 68.5321 35.8148 68.8706 36.2632 69.32C36.7117 69.7693 37.0491 70.3171 37.2488 70.9197L37.8894 72.8934C37.9429 73.046 38.0425 73.1782 38.1744 73.2717C38.3063 73.3653 38.464 73.4155 38.6257 73.4155C38.7874 73.4155 38.9451 73.3653 39.077 73.2717C39.2089 73.1782 39.3085 73.046 39.3619 72.8934L40.0052 70.9197C40.2056 70.3188 40.5431 69.7728 40.991 69.3248C41.439 68.8769 41.985 68.5394 42.5859 68.339L44.5622 67.6983C44.7148 67.6448 44.847 67.5452 44.9405 67.4133C45.034 67.2815 45.0843 67.1238 45.0843 66.9621C45.0843 66.8004 45.034 66.6427 44.9405 66.5108C44.847 66.3789 44.7148 66.2793 44.5622 66.2258L44.5234 66.2155Z" fill="#12305D"/>
</svg>
