<svg width="37" height="38" viewBox="0 0 37 38" fill="none" xmlns="http://www.w3.org/2000/svg">
<path d="M2.73419 27.6708C3.36088 29.1074 1.63261 32.6202 1.75199 34.1167C2.0385 37.9237 6.8256 35.7029 9.18333 34.1167C13.66 36.6308 23.0673 36.6491 29.5049 31.3521C36.4886 25.6059 38.1002 11.1499 28.6991 4.68495C18.7962 -2.12515 9.71353 2.6198 5.77836 6.66025C-1.74239 14.3822 2.2663 26.5983 2.73419 27.6708Z" stroke="white" stroke-width="2.5"/>
<path d="M10.8413 23.2738C11.2559 24.6377 11.0071 23.9557 11.5047 25.3197C11.45 27.3164 13.7573 25.7895 14.85 25.0497C16.9246 26.2222 20.5375 26.8246 23.5209 24.3544C26.7573 21.6747 27.5042 14.9332 23.1475 11.9183C18.5582 8.74242 14.349 10.9552 12.5253 12.8394C9.03995 16.4405 10.6824 22.7511 10.8413 23.2738Z" stroke="white" stroke-width="2.5"/>
</svg>
