<svg width="86" height="82" viewBox="0 0 86 82" fill="none" xmlns="http://www.w3.org/2000/svg">
<ellipse cx="43" cy="41" rx="43" ry="41" fill="#EFF5FF"/>
<path d="M49.5135 17.004C49.095 17.0185 48.6911 17.0836 48.2705 17.1739L19.8233 23.1605C16.4584 23.8727 14.3532 26.8045 15.1798 29.7128L19.1683 43.7791C19.41 44.6169 19.8806 45.3926 20.5407 46.0411C21.2008 46.6895 22.0312 47.1919 22.9623 47.5062V44.1171C22.9623 39.1337 27.656 35.0794 33.4254 35.0794H59.7799L55.8562 21.127C55.5092 19.9142 54.6886 18.8418 53.5328 18.0908C52.377 17.3397 50.9588 16.9559 49.5135 17.004ZM52.0623 24.7999L53.7636 30.9564L46.701 32.4241L44.9348 26.3237L52.0623 24.7999ZM33.4254 38.6945C29.96 38.6945 27.1475 41.1238 27.1475 44.1171V58.5774C27.1475 61.5707 29.96 64 33.4254 64H62.7221C66.1875 64 69 61.5707 69 58.5774V44.1171C69 41.1238 66.1875 38.6945 62.7221 38.6945H33.4254ZM33.4254 41.5757H62.7221C64.3355 41.5757 65.6644 42.7235 65.6644 44.1171V45.9246H30.4831V44.1171C30.4831 42.7235 31.812 41.5757 33.4254 41.5757ZM30.4831 51.3472H65.6644V58.5774C65.6644 59.971 64.3355 61.1188 62.7221 61.1188H33.4254C32.6464 61.115 31.9006 60.846 31.3498 60.3702C30.7989 59.8944 30.4875 59.2502 30.4831 58.5774V51.3472Z" fill="#12305D"/>
</svg>
