<svg width="86" height="82" viewBox="0 0 86 82" fill="none" xmlns="http://www.w3.org/2000/svg">
<ellipse cx="43" cy="41" rx="43" ry="41" fill="#EFF5FF"/>
<path d="M40.9496 23.7325C41.4174 23.7325 41.88 23.7533 42.3372 23.795C41.724 24.8532 41.3047 26.0084 41.0985 27.2084L40.9496 27.2049C34.0966 27.2049 28.5444 32.6427 28.5444 39.3583C28.5444 46.074 34.0966 51.5118 40.9496 51.5118C44.1759 51.5157 47.276 50.2846 49.589 48.081L49.8548 47.8206C52.103 45.5548 53.3589 42.5183 53.3548 39.3583L53.3495 39.2108C54.5744 39.0081 55.7536 38.5968 56.8336 37.9954C57.1988 41.9939 55.972 45.976 53.4098 49.1089L61 56.545L58.4924 59L50.9039 51.5656C48.0804 53.7831 44.5684 54.9892 40.9496 54.9842C32.1454 54.9842 25 47.9838 25 39.3583C25 30.7329 32.1454 23.7325 40.9496 23.7325ZM50.7497 22.5502C50.8168 22.3876 50.932 22.2484 51.0804 22.1504C51.2288 22.0524 51.4037 22 51.5827 22C51.7616 22 51.9365 22.0524 52.0849 22.1504C52.2333 22.2484 52.3485 22.3876 52.4156 22.5502L52.8657 23.611C53.6184 25.4074 55.0454 26.8528 56.8531 27.6494L58.1255 28.205C58.2887 28.2785 58.427 28.3963 58.5239 28.5445C58.6208 28.6927 58.6723 28.865 58.6723 29.0409C58.6723 29.2169 58.6208 29.3892 58.5239 29.5374C58.427 29.6855 58.2887 29.8034 58.1255 29.8769L56.7787 30.4638C55.016 31.2387 53.6136 32.6324 52.848 34.3702L52.4103 35.3529C52.3421 35.5129 52.2272 35.6496 52.0799 35.7458C51.9326 35.8419 51.7596 35.8932 51.5827 35.8932C51.4057 35.8932 51.2327 35.8419 51.0854 35.7458C50.9381 35.6496 50.8232 35.5129 50.755 35.3529L50.3191 34.372C49.553 32.6329 48.1492 31.2384 46.3849 30.4638L45.038 29.8769C44.8748 29.8034 44.7366 29.6855 44.6397 29.5374C44.5428 29.3892 44.4913 29.2169 44.4913 29.0409C44.4913 28.865 44.5428 28.6927 44.6397 28.5445C44.7366 28.3963 44.8748 28.2785 45.038 28.205L46.3104 27.6494C48.1188 26.8531 49.5465 25.4077 50.2996 23.611L50.7497 22.5502Z" fill="#12305D"/>
</svg>
