<svg width="86" height="82" viewBox="0 0 86 82" fill="none" xmlns="http://www.w3.org/2000/svg">
<ellipse cx="43" cy="41" rx="43" ry="41" fill="#EFF5FF"/>
<path d="M53.8333 58.3332C56.2266 58.3332 58.1667 56.3931 58.1667 53.9998C58.1667 51.6066 56.2266 49.6665 53.8333 49.6665C51.4401 49.6665 49.5 51.6066 49.5 53.9998C49.5 56.3931 51.4401 58.3332 53.8333 58.3332Z" stroke="#335892" stroke-width="3"/>
<path d="M32.1666 58.3332C34.5598 58.3332 36.4999 56.3931 36.4999 53.9998C36.4999 51.6066 34.5598 49.6665 32.1666 49.6665C29.7734 49.6665 27.8333 51.6066 27.8333 53.9998C27.8333 56.3931 29.7734 58.3332 32.1666 58.3332Z" stroke="#335892" stroke-width="3"/>
<path d="M27.8333 53.9392C25.4564 53.8222 23.9766 53.469 22.9193 52.4138C21.8619 51.3587 21.5109 49.8767 21.3939 47.4998M36.4999 53.9998H49.4999M58.1666 53.9392C60.5434 53.8222 62.0232 53.469 63.0806 52.4138C64.6666 50.8257 64.6666 48.2733 64.6666 43.1665V38.8332H54.4832C52.8691 38.8332 52.0631 38.8332 51.4109 38.6208C50.7606 38.4095 50.1695 38.0473 49.686 37.5638C49.2025 37.0802 48.8402 36.4892 48.6289 35.8388C48.4166 35.1867 48.4166 34.3807 48.4166 32.7665C48.4166 30.3463 48.4166 29.1373 48.0981 28.158C47.7811 27.1825 47.2378 26.2959 46.5125 25.5706C45.7872 24.8453 44.9006 24.302 43.9251 23.985C42.9458 23.6665 41.7368 23.6665 39.3166 23.6665H21.3333M21.3333 32.3332H34.3333M21.3333 38.8332H29.9999" stroke="#335892" stroke-width="3" stroke-linecap="round" stroke-linejoin="round"/>
<path d="M48.4165 28H52.362C55.5167 28 57.0918 28 58.3745 28.767C59.6593 29.5318 60.4068 30.9207 61.9018 33.6983L64.6665 38.8333" stroke="#335892" stroke-width="3" stroke-linecap="round" stroke-linejoin="round"/>
</svg>
