<svg width="86" height="82" viewBox="0 0 86 82" fill="none" xmlns="http://www.w3.org/2000/svg">
<ellipse cx="43" cy="41" rx="43" ry="41" fill="#EFF5FF"/>
<path d="M41.1495 30.2165C41.9729 28.7367 42.3845 28 42.9999 28C43.6152 28 44.0269 28.7367 44.8502 30.2165L45.0625 30.5978C45.2965 31.0182 45.4135 31.2262 45.5955 31.3648C45.7797 31.5035 46.0072 31.5555 46.4622 31.6573L46.8739 31.7527C48.4729 32.1145 49.2724 32.2943 49.463 32.9053C49.6537 33.5163 49.1077 34.1555 48.0179 35.4295L47.7362 35.7588C47.4264 36.1207 47.2704 36.3005 47.201 36.5258C47.1317 36.7512 47.1555 36.9917 47.201 37.4748L47.2444 37.9147C47.409 39.6155 47.4914 40.467 46.9952 40.844C46.4969 41.221 45.7472 40.8765 44.25 40.1875L43.8644 40.0098C43.4375 39.8148 43.2252 39.7173 42.9999 39.7173C42.7745 39.7173 42.5622 39.8148 42.1354 40.0098L41.7497 40.1875C40.2525 40.8787 39.5029 41.221 39.0045 40.844C38.5062 40.467 38.5907 39.6155 38.7554 37.9147L38.7987 37.4748C38.8442 36.9917 38.868 36.7512 38.7987 36.5258C38.7294 36.3005 38.5734 36.1207 38.2635 35.7588L37.9819 35.4295C36.892 34.1555 36.346 33.5185 36.5367 32.9053C36.7274 32.2943 37.5269 32.1145 39.1259 31.7527L39.5375 31.6573C39.9925 31.5555 40.22 31.5057 40.4042 31.3648C40.5862 31.2262 40.7032 31.0182 40.9372 30.5978L41.1495 30.2165Z" stroke="#12305D" stroke-width="3"/>
<path d="M58.1666 34.5002C58.1666 36.4919 57.7743 38.4641 57.0121 40.3042C56.2499 42.1443 55.1327 43.8163 53.7244 45.2246C52.316 46.633 50.6441 47.7501 48.804 48.5123C46.9638 49.2745 44.9916 49.6668 42.9999 49.6668C41.0082 49.6668 39.036 49.2745 37.1959 48.5123C35.3558 47.7501 33.6838 46.633 32.2755 45.2246C30.8671 43.8163 29.7499 42.1443 28.9877 40.3042C28.2255 38.4641 27.8333 36.4919 27.8333 34.5002C27.8333 30.4777 29.4312 26.62 32.2755 23.7757C35.1198 20.9314 38.9775 19.3335 42.9999 19.3335C47.0224 19.3335 50.8801 20.9314 53.7244 23.7757C56.5687 26.62 58.1666 30.4777 58.1666 34.5002Z" stroke="#12305D" stroke-width="3"/>
<path d="M28.8212 41L23.4826 46.5272C22.3126 47.7383 21.7276 48.345 21.5239 48.8585C21.0624 50.0263 21.4589 51.3242 22.4621 51.9395C22.9041 52.2082 23.6992 52.2927 25.2896 52.4617C26.1887 52.557 26.6372 52.6025 27.0121 52.7477C27.4314 52.9098 27.8104 53.1612 28.1228 53.4844C28.4352 53.8077 28.6735 54.1951 28.8212 54.6197C28.9599 55.0097 29.0054 55.4733 29.0986 56.405C29.2589 58.0517 29.3412 58.875 29.6012 59.33C30.1949 60.37 31.4494 60.7773 32.5761 60.3007C33.0744 60.0927 33.6594 59.4882 34.8294 58.2748L42.9999 49.814L51.1704 58.2748C52.3404 59.4882 52.9254 60.0927 53.4237 60.3007C54.5504 60.7773 55.8049 60.37 56.3986 59.33C56.6586 58.875 56.7387 58.0517 56.9012 56.405C56.9944 55.4733 57.0399 55.0097 57.1786 54.6197C57.4906 53.7487 58.1449 53.0705 58.9877 52.7477C59.3626 52.6025 59.8111 52.557 60.7102 52.4617C62.3006 52.2927 63.0957 52.2082 63.5377 51.9395C64.5409 51.3242 64.9374 50.0263 64.4759 48.8585C64.2722 48.345 63.6872 47.7383 62.5172 46.5272L57.1786 41" stroke="#12305D" stroke-width="3"/>
</svg>
