<svg width="48" height="48" viewBox="0 0 48 48" fill="none" xmlns="http://www.w3.org/2000/svg">
<path d="M31.2001 29.0442C26.4101 34.0842 14.1921 21.9762 19.0001 16.9162C21.9361 13.8262 18.6201 10.2962 16.7841 7.69823C13.3381 2.82823 5.77607 9.55223 6.00407 13.8302C6.73007 27.3222 21.3241 43.3102 35.4561 41.9142C39.8761 41.4782 44.9561 33.4942 39.8861 30.5762C37.3501 29.1162 33.8681 26.2362 31.2001 29.0422M28.0001 6.00023C31.7131 6.00023 35.2741 7.47522 37.8996 10.1007C40.5251 12.7262 42.0001 16.2872 42.0001 20.0002M28.0001 14.0002C29.5914 14.0002 31.1175 14.6324 32.2427 15.7576C33.3679 16.8828 34.0001 18.4089 34.0001 20.0002" stroke="white" stroke-width="3" stroke-linecap="round" stroke-linejoin="round"/>
</svg>
