<svg width="52" height="52" viewBox="0 0 52 52" fill="none" xmlns="http://www.w3.org/2000/svg">
<path fill-rule="evenodd" clip-rule="evenodd" d="M23.679 1.36424e-07H12.5659C11.5107 -0.000233315 10.4772 0.299153 9.58561 0.863324C8.69398 1.4275 7.98089 2.23326 7.52929 3.18686L2.03587 14.7754C1.89407 15.0751 1.83508 15.4073 1.86501 15.7374L1.85758 15.9231V42.536C1.85955 44.0603 2.46595 45.5216 3.5438 46.5995C4.62166 47.6773 6.08298 48.2837 7.60729 48.2857H44.3936C45.9179 48.2837 47.3792 47.6773 48.4571 46.5995C49.5349 45.5216 50.1413 44.0603 50.1433 42.536V15.9231L50.1359 15.7374C50.1658 15.4073 50.1068 15.0751 49.965 14.7754L44.4679 3.18686C44.0168 2.2344 43.3049 1.4294 42.4147 0.86531C41.5245 0.301219 40.4926 0.00117241 39.4387 1.36424e-07H28.3219V17.4274H45.5004V42.536C45.4985 42.829 45.3813 43.1094 45.1741 43.3165C44.9669 43.5237 44.6865 43.6409 44.3936 43.6429H7.60729C7.31434 43.6409 7.03393 43.5237 6.82678 43.3165C6.61962 43.1094 6.50238 42.829 6.50044 42.536V17.4274H23.679V1.36424e-07ZM34.6473 30.4943C34.4716 30.9189 34.1737 31.2819 33.7915 31.5371C33.4094 31.7923 32.96 31.9284 32.5004 31.928H28.3219V38.428C28.3219 39.0437 28.0773 39.6341 27.6419 40.0695C27.2066 40.5049 26.6161 40.7494 26.0004 40.7494C25.3848 40.7494 24.7943 40.5049 24.3589 40.0695C23.9236 39.6341 23.679 39.0437 23.679 38.428V31.928H19.5004C19.0412 31.9281 18.5923 31.792 18.2105 31.5369C17.8287 31.2818 17.531 30.9192 17.3553 30.495C17.1796 30.0708 17.1336 29.6039 17.2232 29.1536C17.3128 28.7032 17.534 28.2895 17.8587 27.9649L24.3587 21.4649C24.5768 21.2457 24.8366 21.0724 25.1228 20.9553C25.409 20.8382 25.7158 20.7797 26.025 20.7831C26.3342 20.7866 26.6396 20.852 26.9231 20.9755C27.2066 21.0989 27.4624 21.278 27.6756 21.502L34.1422 27.9649C34.4678 28.2896 34.6896 28.7037 34.7796 29.1547C34.8695 29.6057 34.8235 30.0732 34.6473 30.498" fill="#12305D"/>
</svg>
