<svg width="52" height="52" viewBox="0 0 52 52" fill="none" xmlns="http://www.w3.org/2000/svg">
<path d="M42.25 37.9167C42.25 39.3533 41.6793 40.731 40.6635 41.7468C39.6477 42.7626 38.2699 43.3333 36.8333 43.3333C35.3967 43.3333 34.019 42.7626 33.0032 41.7468C31.9874 40.731 31.4167 39.3533 31.4167 37.9167C31.4167 36.4801 31.9874 35.1023 33.0032 34.0865C34.019 33.0707 35.3967 32.5 36.8333 32.5C38.2699 32.5 39.6477 33.0707 40.6635 34.0865C41.6793 35.1023 42.25 36.4801 42.25 37.9167ZM20.5833 37.9167C20.5833 39.3533 20.0127 40.731 18.9968 41.7468C17.981 42.7626 16.6033 43.3333 15.1667 43.3333C13.7301 43.3333 12.3523 42.7626 11.3365 41.7468C10.3207 40.731 9.75 39.3533 9.75 37.9167C9.75 36.4801 10.3207 35.1023 11.3365 34.0865C12.3523 33.0707 13.7301 32.5 15.1667 32.5C16.6033 32.5 17.981 33.0707 18.9968 34.0865C20.0127 35.1023 20.5833 36.4801 20.5833 37.9167Z" stroke="#335892" stroke-width="3"/>
<path d="M31.4173 37.9167H20.584M42.2506 37.9167H43.9038C44.3805 37.9167 44.6188 37.9168 44.8181 37.8908C45.5354 37.8014 46.2024 37.4755 46.7137 36.9646C47.225 36.4537 47.5514 35.787 47.6413 35.0698C47.6673 34.8683 47.6673 34.6299 47.6673 34.1532V28.1667C47.6673 24.4316 46.1835 20.8495 43.5424 18.2083C40.9013 15.5672 37.3191 14.0834 33.584 14.0834M4.33398 8.66675H26.0006C29.0643 8.66675 30.5962 8.66675 31.5473 9.62008C32.5006 10.5691 32.5006 12.1009 32.5006 15.1667V33.5834M4.33398 27.6251V32.5001C4.33398 34.5259 4.33398 35.5377 4.76948 36.2917C5.05472 36.7858 5.46496 37.196 5.95898 37.4812C6.71298 37.9167 7.72482 37.9167 9.75065 37.9167M4.33398 15.1667H17.334M4.33398 21.6667H13.0007" stroke="#335892" stroke-width="3" stroke-linecap="round" stroke-linejoin="round"/>
</svg>
