<svg width="52" height="52" viewBox="0 0 52 52" fill="none" xmlns="http://www.w3.org/2000/svg">
<g clip-path="url(#clip0_307_1346)">
<path fill-rule="evenodd" clip-rule="evenodd" d="M43.2208 0C39.6432 0 36.6179 2.4622 35.7438 5.76784L34.7812 5.32064C34.6096 5.24082 34.4225 5.19946 34.2332 5.19946C34.0438 5.19946 33.8568 5.24082 33.6851 5.32064L17.7663 12.7156L1.84756 5.32116C1.64948 5.22917 1.43142 5.18857 1.21351 5.2031C0.995596 5.21763 0.784857 5.28682 0.600745 5.4043C0.416634 5.52177 0.265085 5.68373 0.160089 5.87523C0.0550941 6.06674 3.66769e-05 6.2816 3.50612e-08 6.5V43.0492C-5.75188e-05 43.2971 0.070743 43.5398 0.204057 43.7488C0.33737 43.9577 0.52764 44.1242 0.75244 44.2286L17.2188 51.8773C17.3904 51.9571 17.5775 51.9985 17.7668 51.9985C17.9562 51.9985 18.1432 51.9571 18.3149 51.8773L34.2337 44.4829L50.1524 51.8773C51.0141 52.2772 52 51.6485 52 50.699V14.1497C52.0001 13.9019 51.9293 13.6592 51.7959 13.4502C51.6626 13.2412 51.4724 13.0748 51.2476 12.9704L49.568 12.1893L50.0937 11.2939C50.2133 11.077 50.3084 10.8462 50.3901 10.6101C50.7659 9.69211 50.9595 8.70977 50.96 7.71784C50.96 3.4762 47.475 0 43.2208 0ZM43.2208 3.61556C45.5114 3.61556 47.333 5.43348 47.333 7.71784C47.333 10.0017 45.5114 11.818 43.2208 11.818C40.9302 11.818 39.1087 10.0017 39.1087 7.71784C39.1087 5.43348 40.9302 3.61556 43.2208 3.61556ZM34.8145 8.203L35.5306 8.53632C35.6697 9.83582 36.1396 11.078 36.8956 12.1441L42.2765 21.4469C43.0305 22.4318 43.5318 22.2446 44.1584 21.3949L48.244 14.4409L49.4 14.9786V48.6616L35.0074 41.976L34.8899 21.3444C35.1021 21.3902 35.3137 21.4344 35.5264 21.4848L36.0048 19.4615C35.6305 19.373 35.2546 19.291 34.8774 19.2156L34.8145 8.203ZM33.2556 8.38708L33.3154 18.9618C32.7783 18.8883 32.2381 18.8395 31.6966 18.8157L31.6196 20.8936C32.1854 20.9144 32.7558 20.9758 33.3278 21.059L33.4474 41.9806L18.5359 48.9086L18.344 15.3145L33.2556 8.38708ZM2.6 8.53736L16.783 15.1258L16.9759 48.8982L2.6 42.2193V8.53736ZM29.4024 18.9576C28.6863 19.0861 27.9536 19.3154 27.2714 19.7122C26.4553 20.1847 25.7841 20.8716 25.3308 21.6986L27.1518 22.7032C27.4231 22.2092 27.8231 21.7978 28.3093 21.5129L28.3124 21.5108L28.3156 21.5088C28.7352 21.2644 29.2349 21.1 29.77 21.0044L29.4024 18.9576ZM38.0687 20.0138L37.4795 22.0074C38.7811 22.3922 40.0702 22.8342 41.352 23.3126L42.0794 21.3637C40.7628 20.8728 39.4274 20.4152 38.0687 20.0138ZM24.5476 23.9637L24.532 24.0458L24.5305 24.0531C24.271 25.5252 24.2986 26.974 24.3568 28.3509L26.4347 28.2625C26.378 26.9266 26.3661 25.6339 26.5788 24.4208L26.5912 24.3558L24.5476 23.9637ZM26.5585 30.3129L24.4837 30.4533C24.5773 31.8412 24.6771 33.2015 24.6735 34.5353L26.7535 34.5405C26.7576 33.1001 26.6521 31.6919 26.5585 30.3129ZM24.57 36.4957C24.5128 36.9912 24.4275 37.4733 24.3027 37.9361L24.3017 37.9387L24.3006 37.9428C24.1186 38.637 23.8124 39.2798 23.3849 39.7831L24.9694 41.1299C25.6391 40.3421 26.064 39.415 26.311 38.4769L26.312 38.4738C26.468 37.8934 26.5694 37.309 26.636 36.7318L24.57 36.4957ZM7.01064 38.5226L6.07672 40.3811C7.36632 41.0296 8.70012 41.5657 10.0433 42.0295L10.7219 40.0634C9.44528 39.623 8.19884 39.1196 7.01064 38.5226ZM12.6454 40.6614L12.0921 42.6665C13.468 43.0466 14.8824 43.3488 16.328 43.5115L16.5599 41.4445C15.249 41.2974 13.9417 41.0197 12.6454 40.6614ZM22.0787 40.808C21.0428 41.3384 19.7922 41.5345 18.5063 41.5501L18.5323 43.6301C20.006 43.6124 21.5816 43.3992 23.0261 42.6592L22.0787 40.808Z" fill="#335892"/>
</g>
<defs>
<clipPath id="clip0_307_1346">
<rect width="52" height="52" fill="white"/>
</clipPath>
</defs>
</svg>
